<svg width="22" height="22" viewBox="0 0 22 22" fill="none" xmlns="http://www.w3.org/2000/svg">
<mask id="mask0_1_10743" style="mask-type:luminance" maskUnits="userSpaceOnUse" x="0" y="0" width="22" height="22">
<path d="M22 0H0V22H22V0Z" fill="white"/>
</mask>
<g mask="url(#mask0_1_10743)">
<g opacity="0.314034">
<path d="M17.8078 11C17.8078 14.7574 14.757 17.8082 10.9996 17.8082C7.24216 17.8082 4.19141 14.7574 4.19141 11C4.19141 7.24253 7.24216 4.19177 10.9996 4.19177C14.757 4.19177 17.8078 7.24253 17.8078 11Z" fill="#09C117"/>
</g>
<path d="M15.5369 11C15.5369 13.5043 13.5037 15.5375 10.9994 15.5375C8.49517 15.5375 6.46191 13.5043 6.46191 11C6.46191 8.49578 8.49517 6.46252 10.9994 6.46252C13.5037 6.46252 15.5369 8.49578 15.5369 11Z" fill="#09C117"/>
</g>
</svg>
