<svg width="27" height="27" viewBox="0 0 27 27" fill="none" xmlns="http://www.w3.org/2000/svg">
<path d="M2.97301 13.1779C1.78798 11.1116 1.21579 9.42435 0.870773 7.71402C0.360505 5.18447 1.52824 2.71351 3.4627 1.13684C4.28029 0.470479 5.21752 0.698148 5.70098 1.5655L6.79246 3.52364C7.65759 5.07571 8.09016 5.85174 8.00436 6.67449C7.91856 7.49724 7.33519 8.16733 6.16844 9.50751L2.97301 13.1779ZM2.97301 13.1779C5.37161 17.3603 9.13577 21.1266 13.323 23.528M13.323 23.528C15.3893 24.713 17.0766 25.2852 18.787 25.6302C21.3165 26.1405 23.7875 24.9727 25.3641 23.0383C26.0305 22.2207 25.8028 21.2835 24.9355 20.8L22.9773 19.7085C21.4253 18.8434 20.6492 18.4108 19.8265 18.4966C19.0037 18.5824 18.3336 19.1658 16.9935 20.3325L13.323 23.528Z" stroke="white" stroke-width="1.5" stroke-linejoin="round"/>
</svg>
