<svg width="22" height="22" viewBox="0 0 22 22" fill="none" xmlns="http://www.w3.org/2000/svg">
<path d="M16.4 0H5.46667C2.44751 0 0 2.44751 0 5.46667V16.4C0 19.4192 2.44751 21.8667 5.46667 21.8667H16.4C19.4192 21.8667 21.8667 19.4192 21.8667 16.4V5.46667C21.8667 2.44751 19.4192 0 16.4 0Z" fill="url(#paint0_linear_0_445)"/>
<path opacity="0.9" d="M7.65334 13.9403C7.54564 13.9404 7.43898 13.9192 7.33946 13.878C7.23994 13.8368 7.14951 13.7765 7.07333 13.7003L4.88666 11.5137C4.81046 11.4375 4.75001 11.3471 4.70877 11.2476C4.66753 11.1481 4.6463 11.0414 4.6463 10.9337C4.6463 10.8259 4.66753 10.7193 4.70877 10.6197C4.75001 10.5202 4.81046 10.4298 4.88666 10.3536L7.07333 8.16697C7.22716 8.01314 7.43579 7.92672 7.65334 7.92672C7.87089 7.92672 8.07952 8.01314 8.23335 8.16697C8.38718 8.3208 8.4736 8.52944 8.4736 8.74699C8.4736 8.96453 8.38718 9.17317 8.23335 9.327L6.62615 10.9337L8.23335 12.5403C8.34811 12.655 8.42626 12.8011 8.45794 12.9602C8.48961 13.1194 8.47337 13.2843 8.41127 13.4342C8.34918 13.5841 8.24402 13.7121 8.1091 13.8022C7.97419 13.8923 7.81557 13.9404 7.65334 13.9403ZM14.2133 13.9403C14.0511 13.9404 13.8925 13.8923 13.7576 13.8022C13.6227 13.7121 13.5175 13.5841 13.4554 13.4342C13.3933 13.2843 13.3771 13.1194 13.4087 12.9602C13.4404 12.8011 13.5186 12.655 13.6333 12.5403L15.2405 10.9337L13.6333 9.327C13.5572 9.25083 13.4967 9.16041 13.4555 9.06089C13.4143 8.96137 13.3931 8.8547 13.3931 8.74699C13.3931 8.63927 13.4143 8.5326 13.4555 8.43309C13.4967 8.33357 13.5572 8.24314 13.6333 8.16697C13.7872 8.01314 13.9958 7.92672 14.2133 7.92672C14.3211 7.92672 14.4277 7.94794 14.5272 7.98916C14.6268 8.03038 14.7172 8.0908 14.7934 8.16697L16.98 10.3536C17.0562 10.4298 17.1167 10.5202 17.1579 10.6197C17.1991 10.7193 17.2204 10.8259 17.2204 10.9337C17.2204 11.0414 17.1991 11.1481 17.1579 11.2476C17.1167 11.3471 17.0562 11.4375 16.98 11.5137L14.7934 13.7003C14.7172 13.7765 14.6267 13.8368 14.5272 13.878C14.4277 13.9192 14.321 13.9404 14.2133 13.9403Z" fill="white"/>
<path opacity="0.5" d="M9.84009 15.5801C9.76373 15.58 9.68775 15.5693 9.61432 15.5483C9.40528 15.4886 9.22853 15.3482 9.12294 15.1582C9.01735 14.9681 8.99156 14.7439 9.05125 14.5348L11.2379 6.88149C11.2658 6.77606 11.3144 6.67724 11.3809 6.59082C11.4475 6.5044 11.5306 6.43212 11.6254 6.37821C11.7202 6.3243 11.8248 6.28985 11.933 6.27686C12.0413 6.26387 12.1511 6.27261 12.256 6.30257C12.3608 6.33253 12.4587 6.38311 12.5437 6.45134C12.6288 6.51958 12.6994 6.6041 12.7514 6.69995C12.8034 6.79581 12.8358 6.90108 12.8466 7.0096C12.8575 7.11811 12.8465 7.2277 12.8145 7.33195L10.6278 14.9853C10.5789 15.1565 10.4756 15.3072 10.3335 15.4145C10.1914 15.5218 10.0182 15.5799 9.84009 15.5801Z" fill="white"/>
<defs>
<linearGradient id="paint0_linear_0_445" x1="2.51959" y1="2.51959" x2="20.0184" y2="20.0184" gradientUnits="userSpaceOnUse">
<stop stop-color="#9B8DFF"/>
<stop offset="0.252" stop-color="#7D79FD"/>
<stop offset="0.555" stop-color="#5F65FB"/>
<stop offset="0.815" stop-color="#4D58F9"/>
<stop offset="1" stop-color="#4654F9"/>
</linearGradient>
</defs>
</svg>
