<svg width="27" height="23" viewBox="0 0 27 23" fill="none" xmlns="http://www.w3.org/2000/svg">
<path d="M7 7L10.6775 9.17429C12.8215 10.4419 13.6785 10.4419 15.8225 9.17429L19.5 7" stroke="white" stroke-width="1.5" stroke-linecap="round" stroke-linejoin="round"/>
<path d="M0.769707 13.2195C0.851426 17.0514 0.892286 18.9674 2.3062 20.3867C3.72011 21.806 5.68792 21.8554 9.62354 21.9543C12.0491 22.0152 14.4509 22.0152 16.8765 21.9543C20.8121 21.8554 22.7799 21.806 24.1938 20.3867C25.6077 18.9674 25.6486 17.0514 25.7303 13.2195C25.7566 11.9874 25.7566 10.7626 25.7303 9.53049C25.6486 5.69858 25.6077 3.78262 24.1938 2.36333C22.7799 0.944039 20.8121 0.894596 16.8765 0.795711C14.4509 0.734766 12.0491 0.734763 9.62353 0.795703C5.68791 0.89458 3.7201 0.944018 2.30619 2.36331C0.892279 3.7826 0.851421 5.69856 0.769706 9.53047C0.743431 10.7626 0.743431 11.9874 0.769707 13.2195Z" stroke="white" stroke-width="1.5" stroke-linejoin="round"/>
</svg>
