<svg width="22" height="27" viewBox="0 0 22 27" fill="none" xmlns="http://www.w3.org/2000/svg">
<path d="M4.5 20.75C2.21384 21.2646 0.75 22.0553 0.75 22.9421C0.75 24.4928 5.22715 25.75 10.75 25.75C16.2728 25.75 20.75 24.4928 20.75 22.9421C20.75 22.0553 19.2862 21.2646 17 20.75" stroke="white" stroke-width="1.5" stroke-linecap="round"/>
<path d="M13.875 9.5C13.875 11.2259 12.4759 12.625 10.75 12.625C9.02411 12.625 7.625 11.2259 7.625 9.5C7.625 7.77411 9.02411 6.375 10.75 6.375C12.4759 6.375 13.875 7.77411 13.875 9.5Z" stroke="white" stroke-width="1.5"/>
<path d="M12.3218 20.117C11.9002 20.523 11.3366 20.75 10.7502 20.75C10.1637 20.75 9.60023 20.523 9.17863 20.117C5.31788 16.376 0.143987 12.1969 2.66714 6.12966C4.03138 2.84916 7.30618 0.75 10.7502 0.75C14.1942 0.75 17.469 2.84916 18.8332 6.12966C21.3532 12.1893 16.192 16.3889 12.3218 20.117Z" stroke="white" stroke-width="1.5"/>
</svg>
